# xmcd
#
# Track frame offsets: 
#        150
#        19030
#        36568
#        61750
#        78833
#        107950
#        127423
#        150283
#        173398
#        201295
#        223550
#
# Disc length: 3159 seconds
#
# Revision: 2
# Processed by: cddbd v1.5.2PL0 Copyright (c) Steve Scherf et al.
# Submitted via: ExactAudioCopy v1.0b3
#
DISCID=8e0c550b
DTITLE=Various Artist - Dem Da Vu Tuyet Voi
DYEAR=1989
DGENRE=
TTITLE0=Thuy Vi - May lang thang
TTITLE1=Truc Mai - Nguoi tinh Nam My
TTITLE2=Duy Quang - Tinh phu
TTITLE3=Thuy Nga - Song nuoc biec
TTITLE4=Thanh Thuy - Sau ngay hanh quan
TTITLE5=Jeannie Mai - Bo vo
TTITLE6=Thuy Man - Qua con me
TTITLE7=Le Thu - Chang la ai
TTITLE8=Che Linh - Bong dang nguoi yeu
TTITLE9=Si Phu - Lanh lung
TTITLE10=Phuong Hoai Tam - Kim
EXTD=
EXTT0=
EXTT1=
EXTT2=
EXTT3=
EXTT4=
EXTT5=
EXTT6=
EXTT7=
EXTT8=
EXTT9=
EXTT10=
PLAYORDER=
